  0
SECTION
  2
BLOCKS
  0
ENDSEC
  0
SECTION
  2
ENTITIES
  0
LINE
  8
0
 10
50.4952
 20
128.35
 11
0
 21
128.35
  0
LINE
  8
0
 10
0
 20
128.35
 11
0
 21
0
  0
LINE
  8
0
 10
0
 20
0
 11
50.4952
 21
0
  0
LINE
  8
0
 10
50.4952
 20
0
 11
50.4952
 21
128.35
  0
LINE
  8
0
 10
7.39639
 20
123.703
 11
7.19081
 21
123.729
  0
LINE
  8
0
 10
7.19081
 20
123.729
 11
6.99011
 21
123.781
  0
LINE
  8
0
 10
6.99011
 20
123.781
 11
6.79745
 21
123.857
  0
LINE
  8
0
 10
6.79745
 20
123.857
 11
6.61588
 21
123.957
  0
LINE
  8
0
 10
6.61588
 20
123.957
 11
6.44824
 21
124.079
  0
LINE
  8
0
 10
6.44824
 20
124.079
 11
6.2972
 21
124.22
  0
LINE
  8
0
 10
6.2972
 20
124.22
 11
6.16512
 21
124.38
  0
LINE
  8
0
 10
6.16512
 20
124.38
 11
6.05409
 21
124.555
  0
LINE
  8
0
 10
6.05409
 20
124.555
 11
5.96587
 21
124.743
  0
LINE
  8
0
 10
5.96587
 20
124.743
 11
5.90182
 21
124.94
  0
LINE
  8
0
 10
5.90182
 20
124.94
 11
5.86301
 21
125.143
  0
LINE
  8
0
 10
5.86301
 20
125.143
 11
5.84999
 21
125.35
  0
LINE
  8
0
 10
5.84999
 20
125.35
 11
5.86301
 21
125.557
  0
LINE
  8
0
 10
5.86301
 20
125.557
 11
5.90182
 21
125.76
  0
LINE
  8
0
 10
5.90182
 20
125.76
 11
5.96587
 21
125.957
  0
LINE
  8
0
 10
5.96587
 20
125.957
 11
6.05409
 21
126.145
  0
LINE
  8
0
 10
6.05409
 20
126.145
 11
6.16512
 21
126.32
  0
LINE
  8
0
 10
6.16512
 20
126.32
 11
6.2972
 21
126.479
  0
LINE
  8
0
 10
6.2972
 20
126.479
 11
6.44824
 21
126.621
  0
LINE
  8
0
 10
6.44824
 20
126.621
 11
6.61588
 21
126.743
  0
LINE
  8
0
 10
6.61588
 20
126.743
 11
6.79745
 21
126.843
  0
LINE
  8
0
 10
6.79745
 20
126.843
 11
6.99011
 21
126.919
  0
LINE
  8
0
 10
6.99011
 20
126.919
 11
7.19081
 21
126.971
  0
LINE
  8
0
 10
7.19081
 20
126.971
 11
7.39639
 21
126.997
  0
LINE
  8
0
 10
7.39639
 20
126.997
 11
7.60359
 21
126.997
  0
LINE
  8
0
 10
7.60359
 20
126.997
 11
7.80917
 21
126.971
  0
LINE
  8
0
 10
7.80917
 20
126.971
 11
8.00987
 21
126.919
  0
LINE
  8
0
 10
8.00987
 20
126.919
 11
8.20253
 21
126.843
  0
LINE
  8
0
 10
8.20253
 20
126.843
 11
8.38411
 21
126.743
  0
LINE
  8
0
 10
8.38411
 20
126.743
 11
8.55174
 21
126.621
  0
LINE
  8
0
 10
8.55174
 20
126.621
 11
8.70279
 21
126.479
  0
LINE
  8
0
 10
8.70279
 20
126.479
 11
8.83487
 21
126.32
  0
LINE
  8
0
 10
8.83487
 20
126.32
 11
8.94589
 21
126.145
  0
LINE
  8
0
 10
8.94589
 20
126.145
 11
9.03412
 21
125.957
  0
LINE
  8
0
 10
9.03412
 20
125.957
 11
9.09816
 21
125.76
  0
LINE
  8
0
 10
9.09816
 20
125.76
 11
9.13698
 21
125.557
  0
LINE
  8
0
 10
9.13698
 20
125.557
 11
9.14999
 21
125.35
  0
LINE
  8
0
 10
9.14999
 20
125.35
 11
9.13698
 21
125.143
  0
LINE
  8
0
 10
9.13698
 20
125.143
 11
9.09816
 21
124.94
  0
LINE
  8
0
 10
9.09816
 20
124.94
 11
9.03412
 21
124.743
  0
LINE
  8
0
 10
9.03412
 20
124.743
 11
8.94589
 21
124.555
  0
LINE
  8
0
 10
8.94589
 20
124.555
 11
8.83487
 21
124.38
  0
LINE
  8
0
 10
8.83487
 20
124.38
 11
8.70279
 21
124.22
  0
LINE
  8
0
 10
8.70279
 20
124.22
 11
8.55174
 21
124.079
  0
LINE
  8
0
 10
8.55174
 20
124.079
 11
8.38411
 21
123.957
  0
LINE
  8
0
 10
8.38411
 20
123.957
 11
8.20253
 21
123.857
  0
LINE
  8
0
 10
8.20253
 20
123.857
 11
8.00987
 21
123.781
  0
LINE
  8
0
 10
8.00987
 20
123.781
 11
7.80917
 21
123.729
  0
LINE
  8
0
 10
7.80917
 20
123.729
 11
7.60359
 21
123.703
  0
LINE
  8
0
 10
7.60359
 20
123.703
 11
7.39639
 21
123.703
  0
LINE
  8
0
 10
7.39639
 20
1.35324
 11
7.19081
 21
1.37921
  0
LINE
  8
0
 10
7.19081
 20
1.37921
 11
6.99011
 21
1.43076
  0
LINE
  8
0
 10
6.99011
 20
1.43076
 11
6.79745
 21
1.50703
  0
LINE
  8
0
 10
6.79745
 20
1.50703
 11
6.61588
 21
1.60686
  0
LINE
  8
0
 10
6.61588
 20
1.60686
 11
6.44824
 21
1.72865
  0
LINE
  8
0
 10
6.44824
 20
1.72865
 11
6.2972
 21
1.87048
  0
LINE
  8
0
 10
6.2972
 20
1.87048
 11
6.16512
 21
2.03015
  0
LINE
  8
0
 10
6.16512
 20
2.03015
 11
6.05409
 21
2.20509
  0
LINE
  8
0
 10
6.05409
 20
2.20509
 11
5.96587
 21
2.39259
  0
LINE
  8
0
 10
5.96587
 20
2.39259
 11
5.90182
 21
2.58966
  0
LINE
  8
0
 10
5.90182
 20
2.58966
 11
5.86301
 21
2.7932
  0
LINE
  8
0
 10
5.86301
 20
2.7932
 11
5.84999
 21
3
  0
LINE
  8
0
 10
5.84999
 20
3
 11
5.86301
 21
3.20679
  0
LINE
  8
0
 10
5.86301
 20
3.20679
 11
5.90182
 21
3.41032
  0
LINE
  8
0
 10
5.90182
 20
3.41032
 11
5.96587
 21
3.60739
  0
LINE
  8
0
 10
5.96587
 20
3.60739
 11
6.05409
 21
3.79489
  0
LINE
  8
0
 10
6.05409
 20
3.79489
 11
6.16512
 21
3.96983
  0
LINE
  8
0
 10
6.16512
 20
3.96983
 11
6.2972
 21
4.1295
  0
LINE
  8
0
 10
6.2972
 20
4.1295
 11
6.44824
 21
4.27133
  0
LINE
  8
0
 10
6.44824
 20
4.27133
 11
6.61588
 21
4.39313
  0
LINE
  8
0
 10
6.61588
 20
4.39313
 11
6.79745
 21
4.49295
  0
LINE
  8
0
 10
6.79745
 20
4.49295
 11
6.99011
 21
4.56923
  0
LINE
  8
0
 10
6.99011
 20
4.56923
 11
7.19081
 21
4.62077
  0
LINE
  8
0
 10
7.19081
 20
4.62077
 11
7.39639
 21
4.64674
  0
LINE
  8
0
 10
7.39639
 20
4.64674
 11
7.60359
 21
4.64674
  0
LINE
  8
0
 10
7.60359
 20
4.64674
 11
7.80917
 21
4.62077
  0
LINE
  8
0
 10
7.80917
 20
4.62077
 11
8.00987
 21
4.56923
  0
LINE
  8
0
 10
8.00987
 20
4.56923
 11
8.20253
 21
4.49295
  0
LINE
  8
0
 10
8.20253
 20
4.49295
 11
8.38411
 21
4.39313
  0
LINE
  8
0
 10
8.38411
 20
4.39313
 11
8.55174
 21
4.27133
  0
LINE
  8
0
 10
8.55174
 20
4.27133
 11
8.70279
 21
4.1295
  0
LINE
  8
0
 10
8.70279
 20
4.1295
 11
8.83487
 21
3.96983
  0
LINE
  8
0
 10
8.83487
 20
3.96983
 11
8.94589
 21
3.79489
  0
LINE
  8
0
 10
8.94589
 20
3.79489
 11
9.03412
 21
3.60739
  0
LINE
  8
0
 10
9.03412
 20
3.60739
 11
9.09816
 21
3.41032
  0
LINE
  8
0
 10
9.09816
 20
3.41032
 11
9.13698
 21
3.20679
  0
LINE
  8
0
 10
9.13698
 20
3.20679
 11
9.14999
 21
3
  0
LINE
  8
0
 10
9.14999
 20
3
 11
9.13698
 21
2.7932
  0
LINE
  8
0
 10
9.13698
 20
2.7932
 11
9.09816
 21
2.58966
  0
LINE
  8
0
 10
9.09816
 20
2.58966
 11
9.03412
 21
2.39259
  0
LINE
  8
0
 10
9.03412
 20
2.39259
 11
8.94589
 21
2.20509
  0
LINE
  8
0
 10
8.94589
 20
2.20509
 11
8.83487
 21
2.03015
  0
LINE
  8
0
 10
8.83487
 20
2.03015
 11
8.70279
 21
1.87048
  0
LINE
  8
0
 10
8.70279
 20
1.87048
 11
8.55174
 21
1.72865
  0
LINE
  8
0
 10
8.55174
 20
1.72865
 11
8.38411
 21
1.60686
  0
LINE
  8
0
 10
8.38411
 20
1.60686
 11
8.20253
 21
1.50703
  0
LINE
  8
0
 10
8.20253
 20
1.50703
 11
8.00987
 21
1.43076
  0
LINE
  8
0
 10
8.00987
 20
1.43076
 11
7.80917
 21
1.37921
  0
LINE
  8
0
 10
7.80917
 20
1.37921
 11
7.60359
 21
1.35324
  0
LINE
  8
0
 10
7.60359
 20
1.35324
 11
7.39639
 21
1.35324
  0
ENDSEC
  0
SECTION
  2
OBJECTS
  0
DICTIONARY
  0
ENDSEC
  0
EOF
